<?xml version="1.0" encoding="UTF-8" standalone="no"?>
<svg
   version="1.1"
   width="227.02299pt"
   height="108.645pt"
   viewBox="0 0 227.02299 108.645"
   id="svg103"
   sodipodi:docname="BIRD.svg"
   inkscape:version="1.1.1 (3bf5ae0d25, 2021-09-20)"
   xmlns:inkscape="http://www.inkscape.org/namespaces/inkscape"
   xmlns:sodipodi="http://sodipodi.sourceforge.net/DTD/sodipodi-0.dtd"
   xmlns="http://www.w3.org/2000/svg"
   xmlns:svg="http://www.w3.org/2000/svg">
  <defs
     id="defs107" />
  <sodipodi:namedview
     id="namedview105"
     pagecolor="#505050"
     bordercolor="#ffffff"
     borderopacity="1"
     inkscape:pageshadow="0"
     inkscape:pageopacity="0"
     inkscape:pagecheckerboard="1"
     inkscape:document-units="pt"
     showgrid="false"
     fit-margin-top="0"
     fit-margin-left="0"
     fit-margin-right="0"
     fit-margin-bottom="0"
     inkscape:zoom="4.619618"
     inkscape:cx="174.68977"
     inkscape:cy="62.992221"
     inkscape:window-width="3440"
     inkscape:window-height="1411"
     inkscape:window-x="1431"
     inkscape:window-y="-9"
     inkscape:window-maximized="1"
     inkscape:current-layer="svg103" />
  <path
     d="m 108.374,78.672 c 0,0.4 -0.329,0.73 -0.73,0.73 h -5.942 c -0.403,0 -0.731,-0.33 -0.731,-0.73 V 37.178 c 0,-0.402 0.328,-0.732 0.731,-0.732 h 5.942 c 0.401,0 0.73,0.33 0.73,0.732 z M 99.605,25.256 c 0,0.407 -0.327,0.731 -0.73,0.731 h -5.942 c -0.405,0 -0.731,-0.324 -0.731,-0.731 V 10.143 c 0,-0.404 0.326,-0.73 0.731,-0.73 h 5.942 c 0.403,0 0.73,0.326 0.73,0.73 z M 176.967,6.265 c -1.448,-0.586 -3.046,-0.684 -4.557,-0.28 l -34.508,9.232 -0.973,-6.901 c -0.081,-0.65 -0.666,-1.164 -1.31,-1.164 H 124.565 V 0 H 96.01 l -7.738,8.717 h 2.803 L 88.088,15.202 54.613,5.985 C 53.105,5.581 51.505,5.679 50.057,6.265 L 0,26.512 9.928,36.384 c 0,0 0.396,0.372 1.083,0.6 0.65,0.218 1.442,-0.002 1.442,-0.002 L 53.22,20.504 92.202,31.61 v -3.204 c 0,-0.402 0.326,-0.73 0.731,-0.73 h 8.038 V 10.143 c 0,-0.404 0.328,-0.73 0.731,-0.73 h 5.942 c 0.401,0 0.73,0.326 0.73,0.73 v 23.965 c 0,0.402 -0.329,0.728 -0.73,0.728 h -5.942 -0.001 -2.096 v 43.996 c 0,0.404 -0.327,0.729 -0.73,0.729 h -5.942 c -0.405,0 -0.731,-0.325 -0.731,-0.729 V 62.483 60.637 L 73.167,54.689 c 0,0 0.561,18.081 6.447,26.909 5.885,8.828 12.474,9.25 18.218,13.455 5.746,4.201 6.026,13.592 15.695,13.592 h 0.062 c 9.669,0 9.951,-9.391 15.697,-13.592 5.745,-4.205 12.333,-4.627 18.219,-13.455 5.886,-8.828 6.443,-26.909 6.443,-26.909 l -19.128,5.968 v 1.199 16.777 c 0,0.4 -0.327,0.728 -0.726,0.728 h -5.946 c -0.4,0 -0.728,-0.328 -0.728,-0.728 v -9.934 h -10.033 v 9.934 c 0,0.4 -0.328,0.728 -0.731,0.728 h -5.944 c -0.401,0 -0.73,-0.328 -0.73,-0.728 V 46.926 c 0,-0.4 0.329,-0.73 0.73,-0.73 h 23.382 c 0.399,0 0.726,0.33 0.726,0.73 v 8.171 l 38.846,-11.096 22.788,9.945 c 0,0 0.767,0.343 1.891,0.106 1.062,-0.225 1.922,-1.013 1.922,-1.013 L 211.804,41.542 177.749,26.73 c -1.859,-0.808 -3.941,-0.943 -5.889,-0.384 l -37.225,11.328 v 6.098 c 0,0.424 -0.344,0.768 -0.769,0.768 h -23.119 c -0.423,0 -0.767,-0.344 -0.767,-0.768 v -6.271 c 0,-0.425 0.344,-0.768 0.767,-0.768 h 7.61 v -1.616 h -7.61 c -0.423,0 -0.767,-0.344 -0.767,-0.768 v -6.271 c 0,-0.425 0.344,-0.769 0.767,-0.769 h 7.61 v -1.456 h -5.262 v -0.026 h -2.545 c -0.403,0 -0.728,-0.329 -0.728,-0.729 V 10.143 c 0,-0.404 0.325,-0.73 0.728,-0.73 h 5.946 c 0.403,0 0.729,0.326 0.729,0.73 v 8.282 h 1.132 v -8.282 c 0,-0.404 0.326,-0.73 0.728,-0.73 h 5.944 c 0.401,0 0.726,0.326 0.726,0.73 v 8.282 h 1.289 v -8.282 c 0,-0.404 0.326,-0.73 0.726,-0.73 h 5.946 c 0.402,0 0.727,0.326 0.727,0.73 v 14.955 c 0,0.4 -0.325,0.729 -0.727,0.729 h -1.831 v 0.026 h -6.13 v 1.456 h 8.111 c 0.425,0 0.769,0.344 0.769,0.769 v 3.586 l 39.17,-11.16 40.764,16.478 c 0,0 0.794,0.22 1.445,0.002 0.685,-0.228 1.081,-0.6 1.081,-0.6 l 9.928,-9.872 z"
     fill="#7f1084"
     id="path5" />
  <path
     d="m 92.2016,37.61679 -37.038,-11.271 c -1.947,-0.559 -4.029,-0.423 -5.888,0.384 l -34.056,14.812 11.537,11.497 c 0,0 0.859,0.788 1.923,1.013 1.124,0.237 1.89,-0.105 1.89,-0.105 l 22.788,-9.946 38.844,11.095 z"
     fill="#7f1084"
     id="path7" />
  <path
     d="m 125.7551,36.7325 h 8.022 v -1.615 h -8.022 z"
     fill="#7f1084"
     id="path9" />
  <path
     d="m 118.6491,53.9475 h -1.286 v 7.912 h 1.286 z"
     fill="#7f1084"
     id="path11" />
  <path
     d="m 127.3951,53.9475 h -1.342 v 7.912 h 1.342 z"
     fill="#7f1084"
     id="path13" />
</svg>
